<?xml version="1.0" encoding="iso-8859-1"?>
<!-- Generator: Adobe Illustrator 19.0.0, SVG Export Plug-In . SVG Version: 6.00 Build 0)  -->
<svg version="1.1" id="Layer_1" xmlns="http://www.w3.org/2000/svg" xmlns:xlink="http://www.w3.org/1999/xlink" x="0px" y="0px"
	 viewBox="0 0 511.991 511.991" style="enable-background:new 0 0 511.991 511.991;" xml:space="preserve">
<g>
	<g>
		<g>
			<path d="M511.16,273.179c-1.672-3.945-5.547-6.523-9.844-6.523h-95.998v-10.664c0-5.891-4.766-10.664-10.656-10.664h-21.343v-32
				c0-5.89-4.766-10.671-10.656-10.671h-21.344v-32c0-5.891-4.766-10.664-10.656-10.664h-63.998h-63.999
				c-5.891,0-10.672,4.773-10.672,10.664v32h-21.328c-5.891,0-10.671,4.781-10.671,10.671v32h-10.672v-74.67V149.33
				c0-5.891-4.766-10.672-10.656-10.672c-5.89,0-10.671,4.781-10.671,10.672v10.664H85.325V149.33
				c0-5.891-4.766-10.672-10.656-10.672s-10.672,4.781-10.672,10.672v21.328v117.333H10.67c-3.938,0-7.547,2.156-9.406,5.625
				s-1.656,7.688,0.531,10.969l42.655,63.999c1.984,2.953,5.312,4.75,8.875,4.75h364.57c2.875,0,5.625-1.172,7.641-3.219
				l83.421-85.342C511.957,281.71,512.815,277.147,511.16,273.179z M383.991,266.655v4.078l-34.516,17.257h-8.156v-21.335h21.344
				H383.991z M351.991,223.992v21.335h-21.328H309.32v-21.335h21.343H351.991z M319.991,266.655v21.335h-42.67v-21.335h21.343
				H319.991z M277.321,181.328h42.67v21.328h-21.327h-21.343V181.328z M287.992,223.992v21.335h-21.327h-21.344v-21.335h21.344
				H287.992z M255.994,266.655v21.335h-42.672v-21.335h21.344H255.994z M213.321,181.328h0.001h42.671v21.328h-21.328h-21.344
				V181.328z M181.323,223.992h21.343h21.328v21.335h-21.328h-21.343V223.992z M149.323,266.655h21.343h21.328v21.335h-42.671
				V266.655z M85.325,181.328h42.67v21.328h-42.67V181.328z M127.995,223.991v32v31.999h-10.671v-63.999H127.995z M85.325,223.992
				h10.671v63.999H85.325V223.992z M413.411,351.989H59.044l-28.453-42.655h44.077h63.999h63.999h63.999h63.998h21.328
				c1.656,0,3.297-0.406,4.766-1.125l40.421-20.219h78.796L413.411,351.989z"/>
			<path d="M88.449,323.114c-4.156,4.156-4.156,10.922,0,15.094c4.172,4.156,10.922,4.156,15.094,0
				c4.156-4.172,4.156-10.938,0-15.094C99.371,318.958,92.621,318.958,88.449,323.114z"/>
			<path d="M152.448,323.114c-4.156,4.156-4.156,10.922,0,15.094c4.172,4.156,10.921,4.156,15.093,0
				c4.156-4.172,4.156-10.938,0-15.094C163.37,318.958,156.62,318.958,152.448,323.114z"/>
			<path d="M216.447,323.114c-4.156,4.156-4.156,10.922,0,15.094c4.172,4.156,10.922,4.156,15.094,0
				c4.156-4.172,4.156-10.938,0-15.094C227.369,318.958,220.619,318.958,216.447,323.114z"/>
			<path d="M280.446,323.114c-4.156,4.156-4.156,10.922,0,15.094c4.172,4.156,10.921,4.156,15.093,0
				c4.156-4.172,4.156-10.938,0-15.094C291.367,318.958,284.618,318.958,280.446,323.114z"/>
			<path d="M344.444,323.114c-4.156,4.156-4.156,10.922,0,15.094c4.172,4.156,10.922,4.156,15.094,0
				c4.156-4.172,4.156-10.938,0-15.094C355.366,318.958,348.616,318.958,344.444,323.114z"/>
		</g>
	</g>
</g>
<g>
</g>
<g>
</g>
<g>
</g>
<g>
</g>
<g>
</g>
<g>
</g>
<g>
</g>
<g>
</g>
<g>
</g>
<g>
</g>
<g>
</g>
<g>
</g>
<g>
</g>
<g>
</g>
<g>
</g>
</svg>
