<svg height="512" viewBox="0 0 64 64" width="512" xmlns="http://www.w3.org/2000/svg"><g id="Box"><path d="m59.19 49.5-16.8 9.7a6.04 6.04 0 0 1 -3 .8h-14.97a6.108 6.108 0 0 1 -2.69-.63l-2.73-1.37v-12l6.49-1.62a6.017 6.017 0 0 1 3.01.02l14.92 4a2.975 2.975 0 0 1 2.09 2.06h.01l10.67-6.16a3 3 0 0 1 3 5.2z" fill="#ffbcab"/><path d="m11 61h8v-3-12-3h-8v2 14z" fill="#ffffff"/><path d="m3 45h8v14h-8z" fill="#ffffff"/><path d="m23 39h32a2 2 0 0 0 2-2v-32a2 2 0 0 0 -2-2h-32a2 2 0 0 0 -2 2v32a2 2 0 0 0 2 2z" fill="#ffffff"/><path d="m55 3v25a6 6 0 0 1 -6 6h-28v3a2 2 0 0 0 2 2h32a2 2 0 0 0 2-2v-32a2 2 0 0 0 -2-2z" fill="#ffffff"/><path d="m39 18 5 3v-18h-10v18z" fill="#ffffff"/><path d="m9 45h2v14h-2z" fill="#ffffff"/><g fill="#231f20"><path d="m61.148 44.9a3.995 3.995 0 0 0 -5.458-1.469l-9.751 5.629a3.964 3.964 0 0 0 -2.259-1.629l-14.92-4a7.013 7.013 0 0 0 -3.51-.03l-5.25 1.318v-1.719a1 1 0 0 0 -1-1h-8a1 1 0 0 0 -1 1v1h-7a1 1 0 0 0 -1 1v14a1 1 0 0 0 1 1h7v1a1 1 0 0 0 1 1h8a1 1 0 0 0 1-1v-1.382l1.286.643a7.027 7.027 0 0 0 3.13.739h14.977a7.011 7.011 0 0 0 3.5-.938l16.8-9.7a4.011 4.011 0 0 0 1.455-5.462zm-57.148 13.1v-12h6v12zm14 2h-6v-16h6zm40.69-11.366-16.8 9.7a5 5 0 0 1 -2.5.67h-14.974a5.027 5.027 0 0 1 -2.235-.528l-2.181-1.094v-10.6l5.734-1.434a5 5 0 0 1 2.508.021l14.92 4a2 2 0 1 1 -1.035 3.863l-11.927-3.198a1 1 0 0 0 -.517 1.932l11.925 3.2a4.043 4.043 0 0 0 1.042.138 3.952 3.952 0 0 0 3.965-4.317l10.072-5.815a2.036 2.036 0 0 1 2.726.732 2.008 2.008 0 0 1 -.723 2.73z"/><path d="m23 40h32a3 3 0 0 0 3-3v-32a3 3 0 0 0 -3-3h-32a3 3 0 0 0 -3 3v32a3 3 0 0 0 3 3zm20-36v15.234l-3.485-2.091a1 1 0 0 0 -1.03 0l-3.485 2.091v-15.234zm-21 1a1 1 0 0 1 1-1h10v17a1 1 0 0 0 1.515.857l4.485-2.691 4.485 2.691a1 1 0 0 0 1.515-.857v-17h10a1 1 0 0 1 1 1v32a1 1 0 0 1 -1 1h-32a1 1 0 0 1 -1-1z"/></g></g></svg>