<svg height="512pt" viewBox="-32 0 512 512" width="512pt" xmlns="http://www.w3.org/2000/svg"><path d="m59.921875 471.371094c-11.015625 0-19.976563-8.957032-19.976563-19.972656v-351.53125c0-11.011719 8.960938-19.972657 19.976563-19.972657h32.953125v78.894531h199.734375v-78.894531h31.957031c11.015625 0 19.976563 8.960938 19.976563 19.972657v221.890624l39.945312-44.476562v-177.414062c0-33.039063-26.878906-59.921876-59.921875-59.921876h-75.324218c-8.242188-23.25-30.457032-39.945312-56.5-39.945312-26.039063 0-48.253907 16.695312-56.496094 39.945312h-76.324219c-33.042969 0-59.921875 26.882813-59.921875 59.921876v351.53125c0 33.042968 26.878906 59.921874 59.921875 59.921874h162.488281l-41.964844-39.949218zm112.847656-391.476563v-19.972656c0-11.015625 8.960938-19.976563 19.972657-19.976563 11.015624 0 19.976562 8.960938 19.976562 19.976563v19.972656h39.945312v38.949219h-119.839843v-38.949219zm131.824219 158.789063h-144.804688v-39.949219h144.804688zm-184.753906-39.949219v39.949219h-39.945313v-39.949219zm40.945312 119.84375v-39.949219h143.808594v39.949219zm-39.945312 0h-40.945313v-39.949219h40.945313zm-40.945313 39.945313h39.945313v39.945312h-39.945313zm367.390625-31.59375-166.222656 185.070312-108.082031-102.882812 27.542969-28.933594 78.296874 74.53125 138.746094-154.480469zm0 0"/></svg>